<?xml version="1.0" encoding="UTF-8"?>
<svg version="1.1" xmlns="http://www.w3.org/2000/svg" width="32" height="32">
<path d="M0 0 C1.98 0 3.96 0 6 0 C6 0.99 6 1.98 6 3 C6.66 3 7.32 3 8 3 C7.8453125 4.60875 7.8453125 4.60875 7.6875 6.25 C7.59151792 10.12639853 7.59151792 10.12639853 10.4375 12.3125 C11.283125 12.869375 12.12875 13.42625 13 14 C14.84862688 17.69725375 14.47587094 21.96461442 14 26 C12.20353146 28.93423195 11.0558929 30.47205355 8 32 C3.08003072 32.53118252 -0.77327597 32.75105553 -5.0625 30.125 C-8.47509989 26.38214851 -8.32843064 23.39230075 -8.29296875 18.484375 C-7.88537873 15.02801166 -6.53723498 13.31336131 -4 11 C-3.34 10.67 -2.68 10.34 -2 10 C-2 7.69 -2 5.38 -2 3 C-1.34 3 -0.68 3 0 3 C0 2.01 0 1.02 0 0 Z " fill="#E8E6E9" transform="translate(13,0)"/>
<path d="M0 0 C1 3 1 3 -0.1875 5.5625 C-2.11379676 8.15303703 -2.91584953 9.14329154 -6 10 C-10.2918979 9.92335897 -12.28779288 9.67568367 -15.4375 6.6875 C-17 4 -17 4 -17 0 C-14.98177083 0.03255208 -12.96354167 0.06510417 -10.9453125 0.09765625 C-2.08333333 -0.34722222 -2.08333333 -0.34722222 0 0 Z " fill="#7E31C0" transform="translate(24,20)"/>
<path d="M0 0 C1.98 0 3.96 0 6 0 C6 0.99 6 1.98 6 3 C6.66 3 7.32 3 8 3 C8 4.32 8 5.64 8 7 C4.7 7 1.4 7 -2 7 C-2 5.68 -2 4.36 -2 3 C-1.34 3 -0.68 3 0 3 C0 2.01 0 1.02 0 0 Z " fill="#DADADF" transform="translate(13,0)"/>
<path d="M0 0 C1.98 0 3.96 0 6 0 C6 0.99 6 1.98 6 3 C4.02 3 2.04 3 0 3 C0 2.01 0 1.02 0 0 Z " fill="#E9E9E9" transform="translate(13,0)"/>
</svg>
